<mxfile host="Electron" agent="Mozilla/5.0 (Windows NT 10.0; Win64; x64) AppleWebKit/537.36 (KHTML, like Gecko) draw.io/26.2.2 Chrome/134.0.6998.178 Electron/35.1.2 Safari/537.36" version="26.2.2">
  <diagram name="Page-1" id="GIc9tRuJycBdatVRoH0d">
    <mxGraphModel dx="2785" dy="2353" grid="1" gridSize="10" guides="1" tooltips="1" connect="1" arrows="1" fold="1" page="1" pageScale="1" pageWidth="850" pageHeight="1100" math="0" shadow="0">
      <root>
        <mxCell id="0" />
        <mxCell id="1" parent="0" />
        <mxCell id="rtUTAHoFXrLmAwMOdA8T-47" style="edgeStyle=orthogonalEdgeStyle;rounded=0;orthogonalLoop=1;jettySize=auto;html=1;exitX=0.5;exitY=0;exitDx=0;exitDy=0;entryX=0.5;entryY=1;entryDx=0;entryDy=0;strokeColor=#A8201A;fontColor=#143642;fillColor=#FAE5C7;endArrow=none;startFill=0;" edge="1" parent="1" source="rtUTAHoFXrLmAwMOdA8T-1" target="rtUTAHoFXrLmAwMOdA8T-34">
          <mxGeometry relative="1" as="geometry" />
        </mxCell>
        <mxCell id="rtUTAHoFXrLmAwMOdA8T-56" style="edgeStyle=orthogonalEdgeStyle;rounded=0;orthogonalLoop=1;jettySize=auto;html=1;exitX=0;exitY=0.5;exitDx=0;exitDy=0;entryX=0.5;entryY=0;entryDx=0;entryDy=0;strokeColor=#A8201A;fontColor=#143642;fillColor=#FAE5C7;endArrow=none;startFill=0;" edge="1" parent="1" source="rtUTAHoFXrLmAwMOdA8T-1" target="rtUTAHoFXrLmAwMOdA8T-8">
          <mxGeometry relative="1" as="geometry" />
        </mxCell>
        <mxCell id="rtUTAHoFXrLmAwMOdA8T-84" style="edgeStyle=orthogonalEdgeStyle;rounded=0;orthogonalLoop=1;jettySize=auto;html=1;exitX=0.75;exitY=0;exitDx=0;exitDy=0;strokeColor=#A8201A;fontColor=#143642;fillColor=#FAE5C7;endArrow=oval;endFill=1;endSize=16;" edge="1" parent="1" source="rtUTAHoFXrLmAwMOdA8T-1">
          <mxGeometry relative="1" as="geometry">
            <mxPoint x="985" y="60" as="targetPoint" />
          </mxGeometry>
        </mxCell>
        <mxCell id="rtUTAHoFXrLmAwMOdA8T-85" style="edgeStyle=orthogonalEdgeStyle;rounded=0;orthogonalLoop=1;jettySize=auto;html=1;exitX=1;exitY=0;exitDx=0;exitDy=0;strokeColor=#A8201A;fontColor=#143642;fillColor=#FAE5C7;endArrow=oval;endFill=0;endSize=16;" edge="1" parent="1" source="rtUTAHoFXrLmAwMOdA8T-1">
          <mxGeometry relative="1" as="geometry">
            <mxPoint x="1010" y="90" as="targetPoint" />
          </mxGeometry>
        </mxCell>
        <mxCell id="rtUTAHoFXrLmAwMOdA8T-86" style="edgeStyle=orthogonalEdgeStyle;rounded=0;orthogonalLoop=1;jettySize=auto;html=1;exitX=1;exitY=0.25;exitDx=0;exitDy=0;strokeColor=#A8201A;fontColor=#143642;fillColor=#FAE5C7;endArrow=oval;endFill=0;endSize=16;" edge="1" parent="1" source="rtUTAHoFXrLmAwMOdA8T-1">
          <mxGeometry relative="1" as="geometry">
            <mxPoint x="1070" y="140.33333333333348" as="targetPoint" />
          </mxGeometry>
        </mxCell>
        <mxCell id="rtUTAHoFXrLmAwMOdA8T-88" style="edgeStyle=orthogonalEdgeStyle;rounded=0;orthogonalLoop=1;jettySize=auto;html=1;exitX=1;exitY=0.75;exitDx=0;exitDy=0;strokeColor=#A8201A;fontColor=#143642;fillColor=#FAE5C7;endArrow=none;endFill=0;endSize=37;startFill=0;entryX=0.5;entryY=0;entryDx=0;entryDy=0;" edge="1" parent="1">
          <mxGeometry relative="1" as="geometry">
            <mxPoint x="1119.685" y="159.56999999999994" as="targetPoint" />
            <mxPoint x="1010" y="158" as="sourcePoint" />
            <Array as="points">
              <mxPoint x="1010" y="160" />
              <mxPoint x="1065" y="160" />
            </Array>
          </mxGeometry>
        </mxCell>
        <mxCell id="rtUTAHoFXrLmAwMOdA8T-1" value="&lt;font style=&quot;font-size: 18px;&quot;&gt;&lt;b&gt;Language&lt;/b&gt;&lt;/font&gt;" style="whiteSpace=wrap;html=1;align=center;labelBackgroundColor=none;fillColor=#FAE5C7;strokeColor=#0F8B8D;fontColor=#143642;" vertex="1" parent="1">
          <mxGeometry x="910" y="130" width="100" height="40" as="geometry" />
        </mxCell>
        <mxCell id="rtUTAHoFXrLmAwMOdA8T-58" style="edgeStyle=orthogonalEdgeStyle;rounded=0;orthogonalLoop=1;jettySize=auto;html=1;exitX=0.25;exitY=0;exitDx=0;exitDy=0;entryX=0.5;entryY=1;entryDx=0;entryDy=0;strokeColor=#A8201A;fontColor=#143642;fillColor=#FAE5C7;endArrow=none;startFill=0;" edge="1" parent="1" source="rtUTAHoFXrLmAwMOdA8T-2" target="rtUTAHoFXrLmAwMOdA8T-38">
          <mxGeometry relative="1" as="geometry">
            <Array as="points">
              <mxPoint x="375" y="370" />
              <mxPoint x="330" y="370" />
            </Array>
          </mxGeometry>
        </mxCell>
        <mxCell id="rtUTAHoFXrLmAwMOdA8T-59" style="edgeStyle=orthogonalEdgeStyle;rounded=0;orthogonalLoop=1;jettySize=auto;html=1;exitX=0;exitY=0;exitDx=0;exitDy=0;entryX=0.5;entryY=1;entryDx=0;entryDy=0;strokeColor=#A8201A;fontColor=#143642;fillColor=#FAE5C7;endArrow=none;startFill=0;" edge="1" parent="1" source="rtUTAHoFXrLmAwMOdA8T-2" target="rtUTAHoFXrLmAwMOdA8T-37">
          <mxGeometry relative="1" as="geometry" />
        </mxCell>
        <mxCell id="rtUTAHoFXrLmAwMOdA8T-2" value="&lt;font style=&quot;font-size: 18px;&quot;&gt;&lt;b&gt;Teacher&lt;/b&gt;&lt;/font&gt;" style="whiteSpace=wrap;html=1;align=center;labelBackgroundColor=none;fillColor=#FAE5C7;strokeColor=#0F8B8D;fontColor=#143642;" vertex="1" parent="1">
          <mxGeometry x="350" y="520" width="100" height="40" as="geometry" />
        </mxCell>
        <mxCell id="rtUTAHoFXrLmAwMOdA8T-51" style="edgeStyle=orthogonalEdgeStyle;rounded=0;orthogonalLoop=1;jettySize=auto;html=1;exitX=0;exitY=0.5;exitDx=0;exitDy=0;entryX=0.5;entryY=1;entryDx=0;entryDy=0;strokeColor=#A8201A;fontColor=#143642;fillColor=#FAE5C7;endArrow=none;startFill=0;" edge="1" parent="1" source="rtUTAHoFXrLmAwMOdA8T-3" target="rtUTAHoFXrLmAwMOdA8T-36">
          <mxGeometry relative="1" as="geometry" />
        </mxCell>
        <mxCell id="rtUTAHoFXrLmAwMOdA8T-54" style="edgeStyle=orthogonalEdgeStyle;rounded=0;orthogonalLoop=1;jettySize=auto;html=1;exitX=0.25;exitY=0;exitDx=0;exitDy=0;entryX=0;entryY=0.5;entryDx=0;entryDy=0;strokeColor=#A8201A;fontColor=#143642;fillColor=#FAE5C7;endArrow=none;startFill=0;" edge="1" parent="1" source="rtUTAHoFXrLmAwMOdA8T-3" target="rtUTAHoFXrLmAwMOdA8T-11">
          <mxGeometry relative="1" as="geometry" />
        </mxCell>
        <mxCell id="rtUTAHoFXrLmAwMOdA8T-3" value="&lt;b&gt;&lt;font style=&quot;font-size: 18px;&quot;&gt;Aluno&lt;/font&gt;&lt;/b&gt;" style="whiteSpace=wrap;html=1;align=center;labelBackgroundColor=none;fillColor=#FAE5C7;strokeColor=#0F8B8D;fontColor=#143642;" vertex="1" parent="1">
          <mxGeometry x="50" y="520" width="100" height="40" as="geometry" />
        </mxCell>
        <mxCell id="rtUTAHoFXrLmAwMOdA8T-45" style="edgeStyle=orthogonalEdgeStyle;rounded=0;orthogonalLoop=1;jettySize=auto;html=1;exitX=0.75;exitY=0;exitDx=0;exitDy=0;entryX=0.5;entryY=1;entryDx=0;entryDy=0;strokeColor=#A8201A;fontColor=#143642;fillColor=#FAE5C7;endArrow=none;startFill=0;" edge="1" parent="1" source="rtUTAHoFXrLmAwMOdA8T-4" target="rtUTAHoFXrLmAwMOdA8T-7">
          <mxGeometry relative="1" as="geometry" />
        </mxCell>
        <mxCell id="rtUTAHoFXrLmAwMOdA8T-4" value="&lt;b&gt;&lt;font style=&quot;font-size: 18px;&quot;&gt;Admin&lt;/font&gt;&lt;/b&gt;" style="whiteSpace=wrap;html=1;align=center;labelBackgroundColor=none;fillColor=#FAE5C7;strokeColor=#0F8B8D;fontColor=#143642;" vertex="1" parent="1">
          <mxGeometry x="750" y="520" width="100" height="40" as="geometry" />
        </mxCell>
        <mxCell id="rtUTAHoFXrLmAwMOdA8T-78" style="edgeStyle=orthogonalEdgeStyle;rounded=0;orthogonalLoop=1;jettySize=auto;html=1;exitX=1;exitY=0.25;exitDx=0;exitDy=0;strokeColor=#A8201A;fontColor=#143642;fillColor=#FAE5C7;endArrow=oval;endFill=0;endSize=16;" edge="1" parent="1" source="rtUTAHoFXrLmAwMOdA8T-5">
          <mxGeometry relative="1" as="geometry">
            <mxPoint x="520" y="699.8421052631579" as="targetPoint" />
          </mxGeometry>
        </mxCell>
        <mxCell id="rtUTAHoFXrLmAwMOdA8T-80" style="edgeStyle=orthogonalEdgeStyle;rounded=0;orthogonalLoop=1;jettySize=auto;html=1;exitX=1;exitY=1;exitDx=0;exitDy=0;strokeColor=#A8201A;fontColor=#143642;fillColor=#FAE5C7;endArrow=oval;endFill=0;endSize=16;" edge="1" parent="1" source="rtUTAHoFXrLmAwMOdA8T-5">
          <mxGeometry relative="1" as="geometry">
            <mxPoint x="449.73684210526335" y="790" as="targetPoint" />
          </mxGeometry>
        </mxCell>
        <mxCell id="rtUTAHoFXrLmAwMOdA8T-81" style="edgeStyle=orthogonalEdgeStyle;rounded=0;orthogonalLoop=1;jettySize=auto;html=1;exitX=0.5;exitY=1;exitDx=0;exitDy=0;strokeColor=#A8201A;fontColor=#143642;fillColor=#FAE5C7;endArrow=oval;endFill=0;endSize=16;" edge="1" parent="1" source="rtUTAHoFXrLmAwMOdA8T-5">
          <mxGeometry relative="1" as="geometry">
            <mxPoint x="400.2631578947371" y="790" as="targetPoint" />
          </mxGeometry>
        </mxCell>
        <mxCell id="rtUTAHoFXrLmAwMOdA8T-83" style="edgeStyle=orthogonalEdgeStyle;rounded=0;orthogonalLoop=1;jettySize=auto;html=1;exitX=0;exitY=0.75;exitDx=0;exitDy=0;strokeColor=#A8201A;fontColor=#143642;fillColor=#FAE5C7;endArrow=oval;endFill=1;endSize=16;" edge="1" parent="1" source="rtUTAHoFXrLmAwMOdA8T-5">
          <mxGeometry relative="1" as="geometry">
            <mxPoint x="280" y="719.8421052631579" as="targetPoint" />
          </mxGeometry>
        </mxCell>
        <mxCell id="rtUTAHoFXrLmAwMOdA8T-5" value="&lt;b&gt;&lt;font style=&quot;font-size: 18px;&quot;&gt;User&lt;/font&gt;&lt;/b&gt;" style="whiteSpace=wrap;html=1;align=center;labelBackgroundColor=none;fillColor=#FAE5C7;strokeColor=#0F8B8D;fontColor=#143642;" vertex="1" parent="1">
          <mxGeometry x="350" y="690" width="100" height="40" as="geometry" />
        </mxCell>
        <mxCell id="rtUTAHoFXrLmAwMOdA8T-43" style="edgeStyle=orthogonalEdgeStyle;rounded=0;orthogonalLoop=1;jettySize=auto;html=1;exitX=1;exitY=0.5;exitDx=0;exitDy=0;entryX=0.5;entryY=0;entryDx=0;entryDy=0;strokeColor=#A8201A;fontColor=#143642;fillColor=#FAE5C7;endArrow=none;startFill=0;" edge="1" parent="1" source="rtUTAHoFXrLmAwMOdA8T-6" target="rtUTAHoFXrLmAwMOdA8T-4">
          <mxGeometry relative="1" as="geometry" />
        </mxCell>
        <mxCell id="rtUTAHoFXrLmAwMOdA8T-44" style="edgeStyle=orthogonalEdgeStyle;rounded=0;orthogonalLoop=1;jettySize=auto;html=1;exitX=0;exitY=0.5;exitDx=0;exitDy=0;entryX=0.5;entryY=0;entryDx=0;entryDy=0;strokeColor=#A8201A;fontColor=#143642;fillColor=#FAE5C7;endArrow=none;startFill=0;" edge="1" parent="1" source="rtUTAHoFXrLmAwMOdA8T-6" target="rtUTAHoFXrLmAwMOdA8T-3">
          <mxGeometry relative="1" as="geometry" />
        </mxCell>
        <mxCell id="rtUTAHoFXrLmAwMOdA8T-126" style="edgeStyle=orthogonalEdgeStyle;rounded=0;orthogonalLoop=1;jettySize=auto;html=1;exitX=1;exitY=0;exitDx=0;exitDy=0;strokeColor=#A8201A;fontColor=#143642;fillColor=#FAE5C7;endArrow=oval;endFill=0;endSize=16;" edge="1" parent="1" source="rtUTAHoFXrLmAwMOdA8T-6">
          <mxGeometry relative="1" as="geometry">
            <mxPoint x="635" y="370" as="targetPoint" />
          </mxGeometry>
        </mxCell>
        <mxCell id="rtUTAHoFXrLmAwMOdA8T-6" value="&lt;b&gt;&lt;font style=&quot;font-size: 18px;&quot;&gt;Gerencia&lt;/font&gt;&lt;/b&gt;" style="shape=rhombus;perimeter=rhombusPerimeter;whiteSpace=wrap;html=1;align=center;labelBackgroundColor=none;fillColor=#FAE5C7;strokeColor=#0F8B8D;fontColor=#143642;" vertex="1" parent="1">
          <mxGeometry x="560" y="390" width="100" height="50" as="geometry" />
        </mxCell>
        <mxCell id="rtUTAHoFXrLmAwMOdA8T-46" style="edgeStyle=orthogonalEdgeStyle;rounded=0;orthogonalLoop=1;jettySize=auto;html=1;exitX=1;exitY=0.5;exitDx=0;exitDy=0;entryX=0.5;entryY=1;entryDx=0;entryDy=0;strokeColor=#A8201A;fontColor=#143642;fillColor=#FAE5C7;endArrow=none;startFill=0;" edge="1" parent="1" source="rtUTAHoFXrLmAwMOdA8T-7" target="rtUTAHoFXrLmAwMOdA8T-1">
          <mxGeometry relative="1" as="geometry" />
        </mxCell>
        <mxCell id="rtUTAHoFXrLmAwMOdA8T-132" style="edgeStyle=orthogonalEdgeStyle;rounded=0;orthogonalLoop=1;jettySize=auto;html=1;exitX=1;exitY=0;exitDx=0;exitDy=0;strokeColor=#A8201A;fontColor=#143642;fillColor=#FAE5C7;endSize=16;endArrow=oval;endFill=0;" edge="1" parent="1" source="rtUTAHoFXrLmAwMOdA8T-7">
          <mxGeometry relative="1" as="geometry">
            <mxPoint x="874.7777777777778" y="240.00000000000023" as="targetPoint" />
          </mxGeometry>
        </mxCell>
        <mxCell id="rtUTAHoFXrLmAwMOdA8T-7" value="&lt;b&gt;&lt;font style=&quot;font-size: 18px;&quot;&gt;Gerencia&lt;/font&gt;&lt;/b&gt;" style="shape=rhombus;perimeter=rhombusPerimeter;whiteSpace=wrap;html=1;align=center;labelBackgroundColor=none;fillColor=#FAE5C7;strokeColor=#0F8B8D;fontColor=#143642;" vertex="1" parent="1">
          <mxGeometry x="800" y="270" width="100" height="50" as="geometry" />
        </mxCell>
        <mxCell id="rtUTAHoFXrLmAwMOdA8T-57" style="edgeStyle=orthogonalEdgeStyle;rounded=0;orthogonalLoop=1;jettySize=auto;html=1;exitX=0.5;exitY=1;exitDx=0;exitDy=0;entryX=0.5;entryY=0;entryDx=0;entryDy=0;strokeColor=#A8201A;fontColor=#143642;fillColor=#FAE5C7;endArrow=none;startFill=0;" edge="1" parent="1" source="rtUTAHoFXrLmAwMOdA8T-8" target="rtUTAHoFXrLmAwMOdA8T-2">
          <mxGeometry relative="1" as="geometry" />
        </mxCell>
        <mxCell id="rtUTAHoFXrLmAwMOdA8T-8" value="&lt;font style=&quot;font-size: 18px;&quot;&gt;&lt;b&gt;Leciona&lt;/b&gt;&lt;/font&gt;" style="shape=rhombus;perimeter=rhombusPerimeter;whiteSpace=wrap;html=1;align=center;labelBackgroundColor=none;fillColor=#FAE5C7;strokeColor=#0F8B8D;fontColor=#143642;" vertex="1" parent="1">
          <mxGeometry x="540" y="200" width="100" height="50" as="geometry" />
        </mxCell>
        <mxCell id="rtUTAHoFXrLmAwMOdA8T-41" style="edgeStyle=orthogonalEdgeStyle;rounded=0;orthogonalLoop=1;jettySize=auto;html=1;exitX=1;exitY=0.5;exitDx=0;exitDy=0;entryX=0;entryY=0.5;entryDx=0;entryDy=0;endArrow=none;startFill=0;labelBackgroundColor=none;strokeColor=#A8201A;fontColor=default;" edge="1" parent="1" source="rtUTAHoFXrLmAwMOdA8T-9" target="rtUTAHoFXrLmAwMOdA8T-4">
          <mxGeometry relative="1" as="geometry" />
        </mxCell>
        <mxCell id="rtUTAHoFXrLmAwMOdA8T-42" style="edgeStyle=orthogonalEdgeStyle;rounded=0;orthogonalLoop=1;jettySize=auto;html=1;exitX=0;exitY=0.5;exitDx=0;exitDy=0;entryX=1;entryY=0.5;entryDx=0;entryDy=0;endArrow=none;startFill=0;labelBackgroundColor=none;strokeColor=#A8201A;fontColor=default;" edge="1" parent="1" source="rtUTAHoFXrLmAwMOdA8T-9" target="rtUTAHoFXrLmAwMOdA8T-2">
          <mxGeometry relative="1" as="geometry" />
        </mxCell>
        <mxCell id="rtUTAHoFXrLmAwMOdA8T-124" style="edgeStyle=orthogonalEdgeStyle;rounded=0;orthogonalLoop=1;jettySize=auto;html=1;exitX=1;exitY=0;exitDx=0;exitDy=0;strokeColor=#A8201A;fontColor=#143642;fillColor=#FAE5C7;endArrow=oval;endFill=0;endSize=16;" edge="1" parent="1" source="rtUTAHoFXrLmAwMOdA8T-9">
          <mxGeometry relative="1" as="geometry">
            <mxPoint x="635" y="480" as="targetPoint" />
          </mxGeometry>
        </mxCell>
        <mxCell id="rtUTAHoFXrLmAwMOdA8T-9" value="&lt;b&gt;&lt;font style=&quot;font-size: 18px;&quot;&gt;Gerencia&lt;/font&gt;&lt;/b&gt;" style="shape=rhombus;perimeter=rhombusPerimeter;whiteSpace=wrap;html=1;align=center;labelBackgroundColor=none;fillColor=#FAE5C7;strokeColor=#0F8B8D;fontColor=#143642;" vertex="1" parent="1">
          <mxGeometry x="560" y="515" width="100" height="50" as="geometry" />
        </mxCell>
        <mxCell id="rtUTAHoFXrLmAwMOdA8T-55" style="edgeStyle=orthogonalEdgeStyle;rounded=0;orthogonalLoop=1;jettySize=auto;html=1;exitX=1;exitY=0.5;exitDx=0;exitDy=0;entryX=0.75;entryY=1;entryDx=0;entryDy=0;strokeColor=#A8201A;fontColor=#143642;fillColor=#FAE5C7;endArrow=none;startFill=0;" edge="1" parent="1" source="rtUTAHoFXrLmAwMOdA8T-11" target="rtUTAHoFXrLmAwMOdA8T-1">
          <mxGeometry relative="1" as="geometry" />
        </mxCell>
        <mxCell id="rtUTAHoFXrLmAwMOdA8T-127" style="edgeStyle=orthogonalEdgeStyle;rounded=0;orthogonalLoop=1;jettySize=auto;html=1;exitX=1;exitY=0;exitDx=0;exitDy=0;strokeColor=#A8201A;fontColor=#143642;fillColor=#FAE5C7;endArrow=oval;endFill=0;endSize=16;" edge="1" parent="1" source="rtUTAHoFXrLmAwMOdA8T-11">
          <mxGeometry relative="1" as="geometry">
            <mxPoint x="65" y="290" as="targetPoint" />
          </mxGeometry>
        </mxCell>
        <mxCell id="rtUTAHoFXrLmAwMOdA8T-11" value="&lt;b&gt;&lt;font style=&quot;font-size: 18px;&quot;&gt;Estuda&lt;/font&gt;&lt;/b&gt;" style="shape=rhombus;perimeter=rhombusPerimeter;whiteSpace=wrap;html=1;align=center;labelBackgroundColor=none;fillColor=#FAE5C7;strokeColor=#0F8B8D;fontColor=#143642;" vertex="1" parent="1">
          <mxGeometry x="-10" y="330" width="100" height="50" as="geometry" />
        </mxCell>
        <mxCell id="rtUTAHoFXrLmAwMOdA8T-23" value="&lt;b&gt;&lt;font style=&quot;font-size: 18px;&quot;&gt;Tem&lt;/font&gt;&lt;/b&gt;" style="shape=rhombus;double=1;perimeter=rhombusPerimeter;whiteSpace=wrap;html=1;align=center;labelBackgroundColor=none;fillColor=#FAE5C7;strokeColor=#0F8B8D;fontColor=#143642;" vertex="1" parent="1">
          <mxGeometry x="-50" y="-300" width="120" height="60" as="geometry" />
        </mxCell>
        <mxCell id="rtUTAHoFXrLmAwMOdA8T-50" style="edgeStyle=orthogonalEdgeStyle;rounded=0;orthogonalLoop=1;jettySize=auto;html=1;exitX=0.5;exitY=0;exitDx=0;exitDy=0;entryX=0;entryY=0.5;entryDx=0;entryDy=0;strokeColor=#A8201A;fontColor=#143642;fillColor=#FAE5C7;endArrow=none;startFill=0;" edge="1" parent="1" source="rtUTAHoFXrLmAwMOdA8T-24" target="rtUTAHoFXrLmAwMOdA8T-23">
          <mxGeometry relative="1" as="geometry" />
        </mxCell>
        <mxCell id="rtUTAHoFXrLmAwMOdA8T-75" style="rounded=0;orthogonalLoop=1;jettySize=auto;html=1;exitX=0.5;exitY=1;exitDx=0;exitDy=0;entryX=0.5;entryY=0;entryDx=0;entryDy=0;strokeColor=#A8201A;fontColor=#143642;fillColor=#FAE5C7;shape=link;" edge="1" parent="1" source="rtUTAHoFXrLmAwMOdA8T-24" target="rtUTAHoFXrLmAwMOdA8T-74">
          <mxGeometry relative="1" as="geometry" />
        </mxCell>
        <mxCell id="rtUTAHoFXrLmAwMOdA8T-96" style="edgeStyle=orthogonalEdgeStyle;rounded=0;orthogonalLoop=1;jettySize=auto;html=1;exitX=0;exitY=0;exitDx=0;exitDy=0;strokeColor=#A8201A;fontColor=#143642;fillColor=#FAE5C7;endArrow=oval;endFill=1;endSize=16;" edge="1" parent="1" source="rtUTAHoFXrLmAwMOdA8T-24">
          <mxGeometry relative="1" as="geometry">
            <mxPoint x="-240" y="-130" as="targetPoint" />
          </mxGeometry>
        </mxCell>
        <mxCell id="rtUTAHoFXrLmAwMOdA8T-97" style="edgeStyle=orthogonalEdgeStyle;rounded=0;orthogonalLoop=1;jettySize=auto;html=1;exitX=1;exitY=0;exitDx=0;exitDy=0;strokeColor=#A8201A;fontColor=#143642;fillColor=#FAE5C7;endArrow=oval;endFill=0;endSize=16;" edge="1" parent="1" source="rtUTAHoFXrLmAwMOdA8T-24">
          <mxGeometry relative="1" as="geometry">
            <mxPoint x="-140" y="-130" as="targetPoint" />
          </mxGeometry>
        </mxCell>
        <mxCell id="rtUTAHoFXrLmAwMOdA8T-24" value="&lt;b&gt;&lt;font style=&quot;font-size: 18px;&quot;&gt;Exercicio&lt;/font&gt;&lt;/b&gt;" style="shape=ext;margin=3;double=1;whiteSpace=wrap;html=1;align=center;labelBackgroundColor=none;fillColor=#FAE5C7;strokeColor=#0F8B8D;fontColor=#143642;" vertex="1" parent="1">
          <mxGeometry x="-240" y="-60" width="100" height="40" as="geometry" />
        </mxCell>
        <mxCell id="rtUTAHoFXrLmAwMOdA8T-25" value="&lt;font style=&quot;font-size: 18px;&quot;&gt;&lt;b&gt;Reading&lt;/b&gt;&lt;/font&gt;" style="shape=ext;margin=3;double=1;whiteSpace=wrap;html=1;align=center;labelBackgroundColor=none;fillColor=#FAE5C7;strokeColor=#0F8B8D;fontColor=#143642;" vertex="1" parent="1">
          <mxGeometry x="325" y="-100" width="100" height="40" as="geometry" />
        </mxCell>
        <mxCell id="rtUTAHoFXrLmAwMOdA8T-27" value="&lt;font style=&quot;font-size: 18px;&quot;&gt;&lt;b&gt;Writing&lt;/b&gt;&lt;/font&gt;" style="shape=ext;margin=3;double=1;whiteSpace=wrap;html=1;align=center;labelBackgroundColor=none;fillColor=#FAE5C7;strokeColor=#0F8B8D;fontColor=#143642;" vertex="1" parent="1">
          <mxGeometry x="190" y="-100" width="100" height="40" as="geometry" />
        </mxCell>
        <mxCell id="rtUTAHoFXrLmAwMOdA8T-28" value="&lt;font style=&quot;font-size: 18px;&quot;&gt;&lt;b&gt;Listening&lt;/b&gt;&lt;/font&gt;" style="shape=ext;margin=3;double=1;whiteSpace=wrap;html=1;align=center;labelBackgroundColor=none;fillColor=#FAE5C7;strokeColor=#0F8B8D;fontColor=#143642;" vertex="1" parent="1">
          <mxGeometry x="460" y="-100" width="100" height="40" as="geometry" />
        </mxCell>
        <mxCell id="rtUTAHoFXrLmAwMOdA8T-29" value="&lt;font style=&quot;font-size: 18px;&quot;&gt;&lt;b&gt;Grammar&lt;/b&gt;&lt;/font&gt;" style="shape=ext;margin=3;double=1;whiteSpace=wrap;html=1;align=center;labelBackgroundColor=none;fillColor=#FAE5C7;strokeColor=#0F8B8D;fontColor=#143642;" vertex="1" parent="1">
          <mxGeometry x="580" y="-100" width="100" height="40" as="geometry" />
        </mxCell>
        <mxCell id="rtUTAHoFXrLmAwMOdA8T-30" value="&lt;font style=&quot;font-size: 18px;&quot;&gt;&lt;b&gt;Vocabulary&lt;/b&gt;&lt;/font&gt;" style="shape=ext;margin=3;double=1;whiteSpace=wrap;html=1;align=center;labelBackgroundColor=none;fillColor=#FAE5C7;strokeColor=#0F8B8D;fontColor=#143642;" vertex="1" parent="1">
          <mxGeometry x="710" y="-100" width="100" height="40" as="geometry" />
        </mxCell>
        <mxCell id="rtUTAHoFXrLmAwMOdA8T-49" style="edgeStyle=orthogonalEdgeStyle;rounded=0;orthogonalLoop=1;jettySize=auto;html=1;exitX=0;exitY=0.5;exitDx=0;exitDy=0;entryX=0.5;entryY=0;entryDx=0;entryDy=0;strokeColor=#A8201A;fontColor=#143642;fillColor=#FAE5C7;endArrow=none;startFill=0;" edge="1" parent="1" source="rtUTAHoFXrLmAwMOdA8T-31" target="rtUTAHoFXrLmAwMOdA8T-23">
          <mxGeometry relative="1" as="geometry" />
        </mxCell>
        <mxCell id="rtUTAHoFXrLmAwMOdA8T-60" style="edgeStyle=orthogonalEdgeStyle;rounded=0;orthogonalLoop=1;jettySize=auto;html=1;exitX=0;exitY=1;exitDx=0;exitDy=0;entryX=0.5;entryY=0;entryDx=0;entryDy=0;strokeColor=#A8201A;fontColor=#143642;fillColor=#FAE5C7;endArrow=none;startFill=0;" edge="1" parent="1" source="rtUTAHoFXrLmAwMOdA8T-31" target="rtUTAHoFXrLmAwMOdA8T-38">
          <mxGeometry relative="1" as="geometry">
            <mxPoint x="411.5" y="-310" as="sourcePoint" />
            <mxPoint x="329.5" y="230" as="targetPoint" />
            <Array as="points">
              <mxPoint x="180" y="-310" />
              <mxPoint x="180" y="180" />
              <mxPoint x="330" y="180" />
            </Array>
          </mxGeometry>
        </mxCell>
        <mxCell id="rtUTAHoFXrLmAwMOdA8T-93" style="edgeStyle=orthogonalEdgeStyle;rounded=0;orthogonalLoop=1;jettySize=auto;html=1;exitX=0;exitY=0;exitDx=0;exitDy=0;strokeColor=#A8201A;fontColor=#143642;fillColor=#FAE5C7;endArrow=oval;endFill=1;endSize=16;" edge="1" parent="1" source="rtUTAHoFXrLmAwMOdA8T-31">
          <mxGeometry relative="1" as="geometry">
            <mxPoint x="388.5" y="-440" as="targetPoint" />
          </mxGeometry>
        </mxCell>
        <mxCell id="rtUTAHoFXrLmAwMOdA8T-94" style="edgeStyle=orthogonalEdgeStyle;rounded=0;orthogonalLoop=1;jettySize=auto;html=1;exitX=0.5;exitY=0;exitDx=0;exitDy=0;strokeColor=#A8201A;fontColor=#143642;fillColor=#FAE5C7;endArrow=oval;endFill=0;endSize=16;" edge="1" parent="1" source="rtUTAHoFXrLmAwMOdA8T-31">
          <mxGeometry relative="1" as="geometry">
            <mxPoint x="438.5" y="-410" as="targetPoint" />
          </mxGeometry>
        </mxCell>
        <mxCell id="rtUTAHoFXrLmAwMOdA8T-95" style="edgeStyle=orthogonalEdgeStyle;rounded=0;orthogonalLoop=1;jettySize=auto;html=1;exitX=1;exitY=0;exitDx=0;exitDy=0;strokeColor=#A8201A;fontColor=#143642;fillColor=#FAE5C7;endArrow=oval;endFill=0;endSize=16;" edge="1" parent="1" source="rtUTAHoFXrLmAwMOdA8T-31">
          <mxGeometry relative="1" as="geometry">
            <mxPoint x="488.5" y="-390" as="targetPoint" />
          </mxGeometry>
        </mxCell>
        <mxCell id="rtUTAHoFXrLmAwMOdA8T-31" value="&lt;font style=&quot;font-size: 18px;&quot;&gt;&lt;b style=&quot;&quot;&gt;Lesson&lt;/b&gt;&lt;/font&gt;" style="shape=ext;margin=3;double=1;whiteSpace=wrap;html=1;align=center;labelBackgroundColor=none;fillColor=#FAE5C7;strokeColor=#0F8B8D;fontColor=#143642;" vertex="1" parent="1">
          <mxGeometry x="388.5" y="-350" width="100" height="40" as="geometry" />
        </mxCell>
        <mxCell id="rtUTAHoFXrLmAwMOdA8T-98" style="edgeStyle=orthogonalEdgeStyle;rounded=0;orthogonalLoop=1;jettySize=auto;html=1;exitX=0.25;exitY=1;exitDx=0;exitDy=0;strokeColor=#A8201A;fontColor=#143642;fillColor=#FAE5C7;endSize=16;endArrow=oval;endFill=0;" edge="1" parent="1" source="rtUTAHoFXrLmAwMOdA8T-32">
          <mxGeometry relative="1" as="geometry">
            <mxPoint x="-295" y="190" as="targetPoint" />
          </mxGeometry>
        </mxCell>
        <mxCell id="rtUTAHoFXrLmAwMOdA8T-99" style="edgeStyle=orthogonalEdgeStyle;rounded=0;orthogonalLoop=1;jettySize=auto;html=1;exitX=0.75;exitY=1;exitDx=0;exitDy=0;strokeColor=#A8201A;fontColor=#143642;fillColor=#FAE5C7;endArrow=oval;endFill=0;endSize=16;" edge="1" parent="1" source="rtUTAHoFXrLmAwMOdA8T-32">
          <mxGeometry relative="1" as="geometry">
            <mxPoint x="-245" y="240" as="targetPoint" />
          </mxGeometry>
        </mxCell>
        <mxCell id="rtUTAHoFXrLmAwMOdA8T-32" value="&lt;font style=&quot;font-size: 18px;&quot;&gt;&lt;b&gt;PAbertas&lt;/b&gt;&lt;/font&gt;" style="shape=ext;margin=3;double=1;whiteSpace=wrap;html=1;align=center;labelBackgroundColor=none;fillColor=#FAE5C7;strokeColor=#0F8B8D;fontColor=#143642;" vertex="1" parent="1">
          <mxGeometry x="-320" y="120" width="100" height="40" as="geometry" />
        </mxCell>
        <mxCell id="rtUTAHoFXrLmAwMOdA8T-100" style="edgeStyle=orthogonalEdgeStyle;rounded=0;orthogonalLoop=1;jettySize=auto;html=1;exitX=0.25;exitY=1;exitDx=0;exitDy=0;strokeColor=#A8201A;fontColor=#143642;fillColor=#FAE5C7;endArrow=oval;endFill=0;endSize=16;" edge="1" parent="1" source="rtUTAHoFXrLmAwMOdA8T-33">
          <mxGeometry relative="1" as="geometry">
            <mxPoint x="-135" y="210" as="targetPoint" />
          </mxGeometry>
        </mxCell>
        <mxCell id="rtUTAHoFXrLmAwMOdA8T-101" style="edgeStyle=orthogonalEdgeStyle;rounded=0;orthogonalLoop=1;jettySize=auto;html=1;exitX=0.5;exitY=1;exitDx=0;exitDy=0;strokeColor=#A8201A;fontColor=#143642;fillColor=#FAE5C7;endArrow=none;endFill=0;endSize=16;startFill=0;" edge="1" parent="1" source="rtUTAHoFXrLmAwMOdA8T-33">
          <mxGeometry relative="1" as="geometry">
            <mxPoint x="-110" y="260" as="targetPoint" />
          </mxGeometry>
        </mxCell>
        <mxCell id="rtUTAHoFXrLmAwMOdA8T-102" style="edgeStyle=orthogonalEdgeStyle;rounded=0;orthogonalLoop=1;jettySize=auto;html=1;exitX=0.75;exitY=1;exitDx=0;exitDy=0;strokeColor=#A8201A;fontColor=#143642;fillColor=#FAE5C7;endArrow=oval;endFill=0;endSize=16;" edge="1" parent="1" source="rtUTAHoFXrLmAwMOdA8T-33">
          <mxGeometry relative="1" as="geometry">
            <mxPoint x="-85" y="210" as="targetPoint" />
          </mxGeometry>
        </mxCell>
        <mxCell id="rtUTAHoFXrLmAwMOdA8T-33" value="&lt;font style=&quot;font-size: 18px;&quot;&gt;&lt;b&gt;Multichoice&lt;/b&gt;&lt;/font&gt;" style="shape=ext;margin=3;double=1;whiteSpace=wrap;html=1;align=center;labelBackgroundColor=none;fillColor=#FAE5C7;strokeColor=#0F8B8D;fontColor=#143642;" vertex="1" parent="1">
          <mxGeometry x="-160" y="120" width="110" height="40" as="geometry" />
        </mxCell>
        <mxCell id="rtUTAHoFXrLmAwMOdA8T-48" style="edgeStyle=orthogonalEdgeStyle;rounded=0;orthogonalLoop=1;jettySize=auto;html=1;exitX=0;exitY=0.5;exitDx=0;exitDy=0;entryX=1;entryY=0.5;entryDx=0;entryDy=0;strokeColor=#A8201A;fontColor=#143642;fillColor=#FAE5C7;endArrow=none;startFill=0;" edge="1" parent="1" source="rtUTAHoFXrLmAwMOdA8T-34" target="rtUTAHoFXrLmAwMOdA8T-31">
          <mxGeometry relative="1" as="geometry" />
        </mxCell>
        <mxCell id="rtUTAHoFXrLmAwMOdA8T-34" value="&lt;font style=&quot;font-size: 18px;&quot;&gt;&lt;b&gt;Pertence&lt;/b&gt;&lt;/font&gt;" style="shape=rhombus;double=1;perimeter=rhombusPerimeter;whiteSpace=wrap;html=1;align=center;labelBackgroundColor=none;fillColor=#FAE5C7;strokeColor=#0F8B8D;fontColor=#143642;" vertex="1" parent="1">
          <mxGeometry x="920" y="-260" width="120" height="60" as="geometry" />
        </mxCell>
        <mxCell id="rtUTAHoFXrLmAwMOdA8T-52" style="edgeStyle=orthogonalEdgeStyle;rounded=0;orthogonalLoop=1;jettySize=auto;html=1;exitX=0;exitY=0.5;exitDx=0;exitDy=0;entryX=0;entryY=0.5;entryDx=0;entryDy=0;strokeColor=#A8201A;fontColor=#143642;fillColor=#FAE5C7;endArrow=none;startFill=0;" edge="1" parent="1" source="rtUTAHoFXrLmAwMOdA8T-36" target="rtUTAHoFXrLmAwMOdA8T-24">
          <mxGeometry relative="1" as="geometry">
            <Array as="points">
              <mxPoint x="-460" y="390" />
              <mxPoint x="-460" y="-40" />
            </Array>
          </mxGeometry>
        </mxCell>
        <mxCell id="rtUTAHoFXrLmAwMOdA8T-128" style="edgeStyle=orthogonalEdgeStyle;rounded=0;orthogonalLoop=1;jettySize=auto;html=1;exitX=0;exitY=0;exitDx=0;exitDy=0;strokeColor=#A8201A;fontColor=#143642;fillColor=#FAE5C7;endArrow=oval;endFill=0;endSize=16;" edge="1" parent="1" source="rtUTAHoFXrLmAwMOdA8T-36">
          <mxGeometry relative="1" as="geometry">
            <mxPoint x="-170" y="320" as="targetPoint" />
          </mxGeometry>
        </mxCell>
        <mxCell id="rtUTAHoFXrLmAwMOdA8T-129" style="edgeStyle=orthogonalEdgeStyle;rounded=0;orthogonalLoop=1;jettySize=auto;html=1;exitX=0;exitY=1;exitDx=0;exitDy=0;strokeColor=#A8201A;fontColor=#143642;fillColor=#FAE5C7;endSize=16;endArrow=oval;endFill=0;" edge="1" parent="1" source="rtUTAHoFXrLmAwMOdA8T-36">
          <mxGeometry relative="1" as="geometry">
            <mxPoint x="-170" y="450" as="targetPoint" />
          </mxGeometry>
        </mxCell>
        <mxCell id="rtUTAHoFXrLmAwMOdA8T-36" value="&lt;font style=&quot;font-size: 18px;&quot;&gt;&lt;b&gt;Resolve&lt;/b&gt;&lt;/font&gt;" style="shape=rhombus;double=1;perimeter=rhombusPerimeter;whiteSpace=wrap;html=1;align=center;labelBackgroundColor=none;fillColor=#FAE5C7;strokeColor=#0F8B8D;fontColor=#143642;" vertex="1" parent="1">
          <mxGeometry x="-200" y="360" width="120" height="60" as="geometry" />
        </mxCell>
        <mxCell id="rtUTAHoFXrLmAwMOdA8T-53" style="edgeStyle=orthogonalEdgeStyle;rounded=0;orthogonalLoop=1;jettySize=auto;html=1;exitX=0.5;exitY=0;exitDx=0;exitDy=0;entryX=1;entryY=0.5;entryDx=0;entryDy=0;strokeColor=#A8201A;fontColor=#143642;fillColor=#FAE5C7;endArrow=none;startFill=0;" edge="1" parent="1" source="rtUTAHoFXrLmAwMOdA8T-37" target="rtUTAHoFXrLmAwMOdA8T-24">
          <mxGeometry relative="1" as="geometry" />
        </mxCell>
        <mxCell id="rtUTAHoFXrLmAwMOdA8T-130" style="edgeStyle=orthogonalEdgeStyle;rounded=0;orthogonalLoop=1;jettySize=auto;html=1;exitX=1;exitY=1;exitDx=0;exitDy=0;strokeColor=#A8201A;fontColor=#143642;fillColor=#FAE5C7;endArrow=oval;endFill=0;endSize=16;" edge="1" parent="1" source="rtUTAHoFXrLmAwMOdA8T-37">
          <mxGeometry relative="1" as="geometry">
            <mxPoint x="150" y="270" as="targetPoint" />
          </mxGeometry>
        </mxCell>
        <mxCell id="rtUTAHoFXrLmAwMOdA8T-37" value="&lt;font style=&quot;font-size: 18px;&quot;&gt;&lt;b&gt;Cria&lt;/b&gt;&lt;/font&gt;" style="shape=rhombus;double=1;perimeter=rhombusPerimeter;whiteSpace=wrap;html=1;align=center;labelBackgroundColor=none;fillColor=#FAE5C7;strokeColor=#0F8B8D;fontColor=#143642;" vertex="1" parent="1">
          <mxGeometry x="60" y="185" width="120" height="60" as="geometry" />
        </mxCell>
        <mxCell id="rtUTAHoFXrLmAwMOdA8T-131" style="edgeStyle=orthogonalEdgeStyle;rounded=0;orthogonalLoop=1;jettySize=auto;html=1;exitX=1;exitY=1;exitDx=0;exitDy=0;strokeColor=#A8201A;fontColor=#143642;fillColor=#FAE5C7;endArrow=oval;endFill=0;endSize=16;" edge="1" parent="1" source="rtUTAHoFXrLmAwMOdA8T-38">
          <mxGeometry relative="1" as="geometry">
            <mxPoint x="360" y="260" as="targetPoint" />
          </mxGeometry>
        </mxCell>
        <mxCell id="rtUTAHoFXrLmAwMOdA8T-38" value="&lt;font style=&quot;font-size: 18px;&quot;&gt;&lt;b&gt;Cria&lt;/b&gt;&lt;/font&gt;" style="shape=rhombus;double=1;perimeter=rhombusPerimeter;whiteSpace=wrap;html=1;align=center;labelBackgroundColor=none;fillColor=#FAE5C7;strokeColor=#0F8B8D;fontColor=#143642;" vertex="1" parent="1">
          <mxGeometry x="270" y="185" width="120" height="60" as="geometry" />
        </mxCell>
        <mxCell id="rtUTAHoFXrLmAwMOdA8T-62" style="rounded=0;orthogonalLoop=1;jettySize=auto;html=1;exitX=0.5;exitY=0;exitDx=0;exitDy=0;entryX=0.5;entryY=1;entryDx=0;entryDy=0;strokeColor=#A8201A;fontColor=#143642;fillColor=#FAE5C7;endArrow=none;startFill=0;shape=link;" edge="1" parent="1" source="rtUTAHoFXrLmAwMOdA8T-61" target="rtUTAHoFXrLmAwMOdA8T-31">
          <mxGeometry relative="1" as="geometry" />
        </mxCell>
        <mxCell id="rtUTAHoFXrLmAwMOdA8T-63" style="rounded=0;orthogonalLoop=1;jettySize=auto;html=1;exitX=0.5;exitY=1;exitDx=0;exitDy=0;entryX=0.5;entryY=0;entryDx=0;entryDy=0;strokeColor=#A8201A;fontColor=#143642;fillColor=#FAE5C7;endArrow=none;startFill=0;" edge="1" parent="1" source="rtUTAHoFXrLmAwMOdA8T-61" target="rtUTAHoFXrLmAwMOdA8T-28">
          <mxGeometry relative="1" as="geometry" />
        </mxCell>
        <mxCell id="rtUTAHoFXrLmAwMOdA8T-64" style="rounded=0;orthogonalLoop=1;jettySize=auto;html=1;exitX=0;exitY=1;exitDx=0;exitDy=0;entryX=0.5;entryY=0;entryDx=0;entryDy=0;strokeColor=#A8201A;fontColor=#143642;fillColor=#FAE5C7;endArrow=none;startFill=0;" edge="1" parent="1" source="rtUTAHoFXrLmAwMOdA8T-61" target="rtUTAHoFXrLmAwMOdA8T-25">
          <mxGeometry relative="1" as="geometry" />
        </mxCell>
        <mxCell id="rtUTAHoFXrLmAwMOdA8T-65" style="rounded=0;orthogonalLoop=1;jettySize=auto;html=1;exitX=1;exitY=1;exitDx=0;exitDy=0;entryX=0.5;entryY=0;entryDx=0;entryDy=0;strokeColor=#A8201A;fontColor=#143642;fillColor=#FAE5C7;endArrow=none;startFill=0;" edge="1" parent="1" source="rtUTAHoFXrLmAwMOdA8T-61" target="rtUTAHoFXrLmAwMOdA8T-29">
          <mxGeometry relative="1" as="geometry" />
        </mxCell>
        <mxCell id="rtUTAHoFXrLmAwMOdA8T-67" style="rounded=0;orthogonalLoop=1;jettySize=auto;html=1;exitX=1;exitY=0.5;exitDx=0;exitDy=0;entryX=0.5;entryY=0;entryDx=0;entryDy=0;strokeColor=#A8201A;fontColor=#143642;fillColor=#FAE5C7;endArrow=none;startFill=0;" edge="1" parent="1" source="rtUTAHoFXrLmAwMOdA8T-61" target="rtUTAHoFXrLmAwMOdA8T-30">
          <mxGeometry relative="1" as="geometry" />
        </mxCell>
        <mxCell id="rtUTAHoFXrLmAwMOdA8T-68" style="rounded=0;orthogonalLoop=1;jettySize=auto;html=1;exitX=0;exitY=0.5;exitDx=0;exitDy=0;entryX=0.5;entryY=0;entryDx=0;entryDy=0;strokeColor=#A8201A;fontColor=#143642;fillColor=#FAE5C7;endArrow=none;startFill=0;" edge="1" parent="1" source="rtUTAHoFXrLmAwMOdA8T-61" target="rtUTAHoFXrLmAwMOdA8T-27">
          <mxGeometry relative="1" as="geometry" />
        </mxCell>
        <mxCell id="rtUTAHoFXrLmAwMOdA8T-61" value="&lt;font style=&quot;font-size: 22px;&quot;&gt;&lt;b&gt;d&lt;/b&gt;&lt;/font&gt;" style="ellipse;whiteSpace=wrap;html=1;aspect=fixed;strokeColor=#0F8B8D;fontColor=#143642;fillColor=#FAE5C7;" vertex="1" parent="1">
          <mxGeometry x="420" y="-270" width="40" height="40" as="geometry" />
        </mxCell>
        <mxCell id="rtUTAHoFXrLmAwMOdA8T-70" style="rounded=0;orthogonalLoop=1;jettySize=auto;html=1;exitX=0.5;exitY=1;exitDx=0;exitDy=0;entryX=0.5;entryY=0;entryDx=0;entryDy=0;strokeColor=#A8201A;fontColor=#143642;fillColor=#FAE5C7;endArrow=none;startFill=0;shape=link;" edge="1" parent="1" source="rtUTAHoFXrLmAwMOdA8T-69" target="rtUTAHoFXrLmAwMOdA8T-5">
          <mxGeometry relative="1" as="geometry" />
        </mxCell>
        <mxCell id="rtUTAHoFXrLmAwMOdA8T-71" style="edgeStyle=orthogonalEdgeStyle;rounded=0;orthogonalLoop=1;jettySize=auto;html=1;exitX=0.5;exitY=0;exitDx=0;exitDy=0;entryX=0.5;entryY=1;entryDx=0;entryDy=0;strokeColor=#A8201A;fontColor=#143642;fillColor=#FAE5C7;endArrow=none;startFill=0;" edge="1" parent="1" source="rtUTAHoFXrLmAwMOdA8T-69" target="rtUTAHoFXrLmAwMOdA8T-2">
          <mxGeometry relative="1" as="geometry" />
        </mxCell>
        <mxCell id="rtUTAHoFXrLmAwMOdA8T-72" style="rounded=0;orthogonalLoop=1;jettySize=auto;html=1;exitX=0;exitY=0;exitDx=0;exitDy=0;entryX=0.5;entryY=1;entryDx=0;entryDy=0;strokeColor=#A8201A;fontColor=#143642;fillColor=#FAE5C7;endArrow=none;startFill=0;" edge="1" parent="1" source="rtUTAHoFXrLmAwMOdA8T-69" target="rtUTAHoFXrLmAwMOdA8T-3">
          <mxGeometry relative="1" as="geometry" />
        </mxCell>
        <mxCell id="rtUTAHoFXrLmAwMOdA8T-73" style="rounded=0;orthogonalLoop=1;jettySize=auto;html=1;exitX=1;exitY=0;exitDx=0;exitDy=0;entryX=0.5;entryY=1;entryDx=0;entryDy=0;strokeColor=#A8201A;fontColor=#143642;fillColor=#FAE5C7;endArrow=none;startFill=0;" edge="1" parent="1" source="rtUTAHoFXrLmAwMOdA8T-69" target="rtUTAHoFXrLmAwMOdA8T-4">
          <mxGeometry relative="1" as="geometry" />
        </mxCell>
        <mxCell id="rtUTAHoFXrLmAwMOdA8T-69" value="&lt;font style=&quot;font-size: 22px;&quot;&gt;&lt;b&gt;d&lt;/b&gt;&lt;/font&gt;" style="ellipse;whiteSpace=wrap;html=1;aspect=fixed;strokeColor=#0F8B8D;fontColor=#143642;fillColor=#FAE5C7;" vertex="1" parent="1">
          <mxGeometry x="380" y="620" width="40" height="40" as="geometry" />
        </mxCell>
        <mxCell id="rtUTAHoFXrLmAwMOdA8T-76" style="rounded=0;orthogonalLoop=1;jettySize=auto;html=1;exitX=0;exitY=1;exitDx=0;exitDy=0;entryX=0.5;entryY=0;entryDx=0;entryDy=0;strokeColor=#A8201A;fontColor=#143642;fillColor=#FAE5C7;endArrow=none;startFill=0;" edge="1" parent="1" source="rtUTAHoFXrLmAwMOdA8T-74" target="rtUTAHoFXrLmAwMOdA8T-32">
          <mxGeometry relative="1" as="geometry" />
        </mxCell>
        <mxCell id="rtUTAHoFXrLmAwMOdA8T-77" style="rounded=0;orthogonalLoop=1;jettySize=auto;html=1;exitX=1;exitY=1;exitDx=0;exitDy=0;entryX=0.5;entryY=0;entryDx=0;entryDy=0;strokeColor=#A8201A;fontColor=#143642;fillColor=#FAE5C7;endArrow=none;startFill=0;" edge="1" parent="1" source="rtUTAHoFXrLmAwMOdA8T-74" target="rtUTAHoFXrLmAwMOdA8T-33">
          <mxGeometry relative="1" as="geometry" />
        </mxCell>
        <mxCell id="rtUTAHoFXrLmAwMOdA8T-74" value="&lt;font style=&quot;font-size: 22px;&quot;&gt;&lt;b&gt;d&lt;/b&gt;&lt;/font&gt;" style="ellipse;whiteSpace=wrap;html=1;aspect=fixed;strokeColor=#0F8B8D;fontColor=#143642;fillColor=#FAE5C7;" vertex="1" parent="1">
          <mxGeometry x="-210" y="30" width="40" height="40" as="geometry" />
        </mxCell>
        <mxCell id="rtUTAHoFXrLmAwMOdA8T-90" style="edgeStyle=orthogonalEdgeStyle;rounded=0;orthogonalLoop=1;jettySize=auto;html=1;exitX=1;exitY=1;exitDx=0;exitDy=0;strokeColor=#A8201A;fontColor=#143642;fillColor=#FAE5C7;endSize=16;endArrow=oval;endFill=0;" edge="1" parent="1" source="rtUTAHoFXrLmAwMOdA8T-89">
          <mxGeometry relative="1" as="geometry">
            <mxPoint x="1310" y="144" as="targetPoint" />
            <mxPoint x="1150.0006595083216" y="140.0799879506148" as="sourcePoint" />
          </mxGeometry>
        </mxCell>
        <mxCell id="rtUTAHoFXrLmAwMOdA8T-91" style="edgeStyle=orthogonalEdgeStyle;rounded=0;orthogonalLoop=1;jettySize=auto;html=1;exitX=0.5;exitY=1;exitDx=0;exitDy=0;strokeColor=#A8201A;fontColor=#143642;fillColor=#FAE5C7;endArrow=oval;endFill=0;endSize=16;" edge="1" parent="1" source="rtUTAHoFXrLmAwMOdA8T-89">
          <mxGeometry relative="1" as="geometry">
            <mxPoint x="1220" y="160" as="targetPoint" />
            <Array as="points">
              <mxPoint x="1180" y="162" />
              <mxPoint x="1180" y="160" />
            </Array>
          </mxGeometry>
        </mxCell>
        <mxCell id="rtUTAHoFXrLmAwMOdA8T-92" style="edgeStyle=orthogonalEdgeStyle;rounded=0;orthogonalLoop=1;jettySize=auto;html=1;exitX=0;exitY=1;exitDx=0;exitDy=0;strokeColor=#A8201A;fontColor=#143642;fillColor=#FAE5C7;endArrow=oval;endFill=0;endSize=16;entryX=0.128;entryY=-0.146;entryDx=0;entryDy=0;entryPerimeter=0;" edge="1" parent="1" source="rtUTAHoFXrLmAwMOdA8T-89" target="rtUTAHoFXrLmAwMOdA8T-138">
          <mxGeometry relative="1" as="geometry">
            <mxPoint x="1160" y="210" as="targetPoint" />
          </mxGeometry>
        </mxCell>
        <mxCell id="rtUTAHoFXrLmAwMOdA8T-89" value="" style="ellipse;whiteSpace=wrap;html=1;strokeColor=light-dark(#8f0f0f, #39a3a5);fontColor=#143642;fillColor=none;rotation=-90;" vertex="1" parent="1">
          <mxGeometry x="1110" y="146.57" width="49.37" height="30" as="geometry" />
        </mxCell>
        <mxCell id="rtUTAHoFXrLmAwMOdA8T-103" value="" style="ellipse;whiteSpace=wrap;html=1;aspect=fixed;strokeColor=#CC0000;fontColor=#143642;fillColor=none;" vertex="1" parent="1">
          <mxGeometry x="-120" y="260" width="20" height="20" as="geometry" />
        </mxCell>
        <mxCell id="rtUTAHoFXrLmAwMOdA8T-104" value="" style="ellipse;whiteSpace=wrap;html=1;aspect=fixed;strokeColor=#CC0000;fontColor=#143642;fillColor=none;" vertex="1" parent="1">
          <mxGeometry x="-118.5" y="261.5" width="17" height="17" as="geometry" />
        </mxCell>
        <mxCell id="rtUTAHoFXrLmAwMOdA8T-105" style="edgeStyle=orthogonalEdgeStyle;rounded=0;orthogonalLoop=1;jettySize=auto;html=1;exitX=0.5;exitY=1;exitDx=0;exitDy=0;strokeColor=#A8201A;fontColor=#143642;fillColor=#FAE5C7;endArrow=none;endFill=0;endSize=16;startFill=0;entryX=0.5;entryY=0;entryDx=0;entryDy=0;" edge="1" parent="1" target="rtUTAHoFXrLmAwMOdA8T-106">
          <mxGeometry relative="1" as="geometry">
            <mxPoint x="240" as="targetPoint" />
            <mxPoint x="240" y="-60" as="sourcePoint" />
          </mxGeometry>
        </mxCell>
        <mxCell id="rtUTAHoFXrLmAwMOdA8T-106" value="" style="ellipse;whiteSpace=wrap;html=1;aspect=fixed;strokeColor=#CC0000;fontColor=#143642;fillColor=none;" vertex="1" parent="1">
          <mxGeometry x="230" y="21.5" width="20" height="20" as="geometry" />
        </mxCell>
        <mxCell id="rtUTAHoFXrLmAwMOdA8T-107" value="" style="ellipse;whiteSpace=wrap;html=1;aspect=fixed;strokeColor=#CC0000;fontColor=#143642;fillColor=none;" vertex="1" parent="1">
          <mxGeometry x="231.5" y="23" width="17" height="17" as="geometry" />
        </mxCell>
        <mxCell id="rtUTAHoFXrLmAwMOdA8T-108" style="edgeStyle=orthogonalEdgeStyle;rounded=0;orthogonalLoop=1;jettySize=auto;html=1;exitX=0.5;exitY=1;exitDx=0;exitDy=0;strokeColor=#A8201A;fontColor=#143642;fillColor=#FAE5C7;endArrow=none;endFill=0;endSize=16;startFill=0;entryX=0.5;entryY=0;entryDx=0;entryDy=0;" edge="1" parent="1" source="rtUTAHoFXrLmAwMOdA8T-25" target="rtUTAHoFXrLmAwMOdA8T-109">
          <mxGeometry relative="1" as="geometry">
            <mxPoint x="375" y="10" as="targetPoint" />
            <mxPoint x="375" y="-50" as="sourcePoint" />
          </mxGeometry>
        </mxCell>
        <mxCell id="rtUTAHoFXrLmAwMOdA8T-109" value="" style="ellipse;whiteSpace=wrap;html=1;aspect=fixed;strokeColor=#CC0000;fontColor=#143642;fillColor=none;" vertex="1" parent="1">
          <mxGeometry x="365" y="20" width="20" height="20" as="geometry" />
        </mxCell>
        <mxCell id="rtUTAHoFXrLmAwMOdA8T-110" value="" style="ellipse;whiteSpace=wrap;html=1;aspect=fixed;strokeColor=#CC0000;fontColor=#143642;fillColor=none;" vertex="1" parent="1">
          <mxGeometry x="366.5" y="21.5" width="17" height="17" as="geometry" />
        </mxCell>
        <mxCell id="rtUTAHoFXrLmAwMOdA8T-111" style="edgeStyle=orthogonalEdgeStyle;rounded=0;orthogonalLoop=1;jettySize=auto;html=1;exitX=0.5;exitY=1;exitDx=0;exitDy=0;strokeColor=#A8201A;fontColor=#143642;fillColor=#FAE5C7;endArrow=none;endFill=0;endSize=16;startFill=0;entryX=0.5;entryY=0;entryDx=0;entryDy=0;" edge="1" parent="1" source="rtUTAHoFXrLmAwMOdA8T-28" target="rtUTAHoFXrLmAwMOdA8T-112">
          <mxGeometry relative="1" as="geometry">
            <mxPoint x="510" y="10" as="targetPoint" />
            <mxPoint x="510" y="-40" as="sourcePoint" />
          </mxGeometry>
        </mxCell>
        <mxCell id="rtUTAHoFXrLmAwMOdA8T-112" value="" style="ellipse;whiteSpace=wrap;html=1;aspect=fixed;strokeColor=#CC0000;fontColor=#143642;fillColor=none;" vertex="1" parent="1">
          <mxGeometry x="500" y="18.560000000000002" width="20" height="20" as="geometry" />
        </mxCell>
        <mxCell id="rtUTAHoFXrLmAwMOdA8T-113" value="" style="ellipse;whiteSpace=wrap;html=1;aspect=fixed;strokeColor=#CC0000;fontColor=#143642;fillColor=none;" vertex="1" parent="1">
          <mxGeometry x="501.5" y="20.060000000000002" width="17" height="17" as="geometry" />
        </mxCell>
        <mxCell id="rtUTAHoFXrLmAwMOdA8T-114" style="edgeStyle=orthogonalEdgeStyle;rounded=0;orthogonalLoop=1;jettySize=auto;html=1;exitX=0.5;exitY=1;exitDx=0;exitDy=0;strokeColor=#A8201A;fontColor=#143642;fillColor=#FAE5C7;endArrow=none;endFill=0;endSize=16;startFill=0;entryX=0.5;entryY=0;entryDx=0;entryDy=0;" edge="1" parent="1" source="rtUTAHoFXrLmAwMOdA8T-29" target="rtUTAHoFXrLmAwMOdA8T-115">
          <mxGeometry relative="1" as="geometry">
            <mxPoint x="630" y="10" as="targetPoint" />
            <mxPoint x="630" y="-50" as="sourcePoint" />
          </mxGeometry>
        </mxCell>
        <mxCell id="rtUTAHoFXrLmAwMOdA8T-115" value="" style="ellipse;whiteSpace=wrap;html=1;aspect=fixed;strokeColor=#CC0000;fontColor=#143642;fillColor=none;" vertex="1" parent="1">
          <mxGeometry x="620" y="21.5" width="20" height="20" as="geometry" />
        </mxCell>
        <mxCell id="rtUTAHoFXrLmAwMOdA8T-116" value="" style="ellipse;whiteSpace=wrap;html=1;aspect=fixed;strokeColor=#CC0000;fontColor=#143642;fillColor=none;" vertex="1" parent="1">
          <mxGeometry x="621.5" y="23" width="17" height="17" as="geometry" />
        </mxCell>
        <mxCell id="rtUTAHoFXrLmAwMOdA8T-117" style="edgeStyle=orthogonalEdgeStyle;rounded=0;orthogonalLoop=1;jettySize=auto;html=1;exitX=0.5;exitY=1;exitDx=0;exitDy=0;strokeColor=#A8201A;fontColor=#143642;fillColor=#FAE5C7;endArrow=none;endFill=0;endSize=16;startFill=0;" edge="1" parent="1" source="rtUTAHoFXrLmAwMOdA8T-30">
          <mxGeometry relative="1" as="geometry">
            <mxPoint x="760" as="targetPoint" />
            <mxPoint x="760" y="-41.5" as="sourcePoint" />
          </mxGeometry>
        </mxCell>
        <mxCell id="rtUTAHoFXrLmAwMOdA8T-120" value="" style="ellipse;whiteSpace=wrap;html=1;strokeColor=light-dark(#8f0f0f, #39a3a5);fontColor=#143642;fillColor=none;" vertex="1" parent="1">
          <mxGeometry x="741.5" width="37" height="20" as="geometry" />
        </mxCell>
        <mxCell id="rtUTAHoFXrLmAwMOdA8T-122" style="edgeStyle=orthogonalEdgeStyle;rounded=0;orthogonalLoop=1;jettySize=auto;html=1;exitX=0;exitY=1;exitDx=0;exitDy=0;strokeColor=#A8201A;fontColor=#143642;fillColor=#FAE5C7;endArrow=oval;endFill=0;endSize=16;" edge="1" parent="1" source="rtUTAHoFXrLmAwMOdA8T-121">
          <mxGeometry relative="1" as="geometry">
            <mxPoint x="748.7619047619048" y="49.99999999999977" as="targetPoint" />
          </mxGeometry>
        </mxCell>
        <mxCell id="rtUTAHoFXrLmAwMOdA8T-123" style="edgeStyle=orthogonalEdgeStyle;rounded=0;orthogonalLoop=1;jettySize=auto;html=1;exitX=1;exitY=0.5;exitDx=0;exitDy=0;strokeColor=#A8201A;fontColor=#143642;fillColor=#FAE5C7;endSize=16;endArrow=oval;endFill=0;" edge="1" parent="1" source="rtUTAHoFXrLmAwMOdA8T-121">
          <mxGeometry relative="1" as="geometry">
            <mxPoint x="820" y="9.888888888888914" as="targetPoint" />
          </mxGeometry>
        </mxCell>
        <mxCell id="rtUTAHoFXrLmAwMOdA8T-121" value="" style="ellipse;whiteSpace=wrap;html=1;strokeColor=light-dark(#8f0f0f, #39a3a5);fontColor=#143642;fillColor=none;" vertex="1" parent="1">
          <mxGeometry x="744.37" y="1.4300000000000002" width="31.25" height="17.13" as="geometry" />
        </mxCell>
        <mxCell id="rtUTAHoFXrLmAwMOdA8T-133" value="&lt;font style=&quot;font-size: 20px;&quot;&gt;&lt;b&gt;id&lt;/b&gt;&lt;/font&gt;" style="text;html=1;align=center;verticalAlign=middle;whiteSpace=wrap;rounded=0;fontColor=light-dark(#761919, #adcad5);" vertex="1" parent="1">
          <mxGeometry x="318.5" y="-450" width="60" height="30" as="geometry" />
        </mxCell>
        <mxCell id="rtUTAHoFXrLmAwMOdA8T-134" value="&lt;font style=&quot;font-size: 20px;&quot;&gt;&lt;b&gt;titulo&lt;/b&gt;&lt;/font&gt;" style="text;html=1;align=center;verticalAlign=middle;whiteSpace=wrap;rounded=0;fontColor=light-dark(#761919, #adcad5);" vertex="1" parent="1">
          <mxGeometry x="428.5" y="-450" width="60" height="30" as="geometry" />
        </mxCell>
        <mxCell id="rtUTAHoFXrLmAwMOdA8T-135" value="&lt;font style=&quot;font-size: 20px;&quot;&gt;&lt;b&gt;dataCriacao&lt;/b&gt;&lt;/font&gt;" style="text;html=1;align=center;verticalAlign=middle;whiteSpace=wrap;rounded=0;fontColor=light-dark(#761919, #adcad5);" vertex="1" parent="1">
          <mxGeometry x="500" y="-410" width="130" height="30" as="geometry" />
        </mxCell>
        <mxCell id="rtUTAHoFXrLmAwMOdA8T-136" value="&lt;font style=&quot;font-size: 20px;&quot;&gt;&lt;b&gt;codigo&lt;/b&gt;&lt;/font&gt;" style="text;html=1;align=center;verticalAlign=middle;whiteSpace=wrap;rounded=0;fontColor=light-dark(#761919, #adcad5);" vertex="1" parent="1">
          <mxGeometry x="970" y="18.56" width="80" height="30" as="geometry" />
        </mxCell>
        <mxCell id="rtUTAHoFXrLmAwMOdA8T-137" value="&lt;font style=&quot;font-size: 20px;&quot;&gt;&lt;b&gt;dataInicio&lt;/b&gt;&lt;/font&gt;" style="text;html=1;align=center;verticalAlign=middle;whiteSpace=wrap;rounded=0;fontColor=light-dark(#761919, #adcad5);" vertex="1" parent="1">
          <mxGeometry x="1020" y="60" width="100" height="30" as="geometry" />
        </mxCell>
        <mxCell id="rtUTAHoFXrLmAwMOdA8T-138" value="&lt;font style=&quot;font-size: 20px;&quot;&gt;&lt;b&gt;nrFalantes&lt;/b&gt;&lt;/font&gt;" style="text;html=1;align=center;verticalAlign=middle;whiteSpace=wrap;rounded=0;fontColor=light-dark(#761919, #adcad5);" vertex="1" parent="1">
          <mxGeometry x="1140" y="230" width="120" height="30" as="geometry" />
        </mxCell>
        <mxCell id="rtUTAHoFXrLmAwMOdA8T-139" value="&lt;font style=&quot;font-size: 20px;&quot;&gt;&lt;b&gt;nome&lt;/b&gt;&lt;/font&gt;" style="text;html=1;align=center;verticalAlign=middle;whiteSpace=wrap;rounded=0;fontColor=light-dark(#761919, #adcad5);" vertex="1" parent="1">
          <mxGeometry x="1070" y="110" width="80" height="30" as="geometry" />
        </mxCell>
        <mxCell id="rtUTAHoFXrLmAwMOdA8T-140" value="&lt;font style=&quot;font-size: 20px;&quot;&gt;&lt;b&gt;regiao&lt;/b&gt;&lt;/font&gt;" style="text;html=1;align=center;verticalAlign=middle;whiteSpace=wrap;rounded=0;fontColor=light-dark(#761919, #adcad5);" vertex="1" parent="1">
          <mxGeometry x="1270" y="100" width="80" height="30" as="geometry" />
        </mxCell>
        <mxCell id="rtUTAHoFXrLmAwMOdA8T-141" value="&lt;font style=&quot;font-size: 20px;&quot;&gt;&lt;b&gt;historia&lt;/b&gt;&lt;/font&gt;" style="text;html=1;align=center;verticalAlign=middle;whiteSpace=wrap;rounded=0;fontColor=light-dark(#761919, #adcad5);" vertex="1" parent="1">
          <mxGeometry x="1230" y="160" width="80" height="30" as="geometry" />
        </mxCell>
        <mxCell id="rtUTAHoFXrLmAwMOdA8T-142" value="&lt;font style=&quot;font-size: 20px;&quot;&gt;&lt;b&gt;descricao&lt;/b&gt;&lt;/font&gt;" style="text;html=1;align=center;verticalAlign=middle;whiteSpace=wrap;rounded=0;fontColor=light-dark(#761919, #adcad5);" vertex="1" parent="1">
          <mxGeometry x="1040" y="176.57" width="80" height="30" as="geometry" />
        </mxCell>
        <mxCell id="rtUTAHoFXrLmAwMOdA8T-143" value="&lt;font style=&quot;font-size: 20px;&quot;&gt;&lt;b&gt;nome&lt;/b&gt;&lt;/font&gt;" style="text;html=1;align=center;verticalAlign=middle;whiteSpace=wrap;rounded=0;fontColor=light-dark(#761919, #adcad5);" vertex="1" parent="1">
          <mxGeometry x="310" y="780" width="80" height="30" as="geometry" />
        </mxCell>
        <mxCell id="rtUTAHoFXrLmAwMOdA8T-144" value="&lt;font style=&quot;font-size: 20px;&quot;&gt;&lt;b&gt;dataInscricao&lt;/b&gt;&lt;/font&gt;" style="text;html=1;align=center;verticalAlign=middle;whiteSpace=wrap;rounded=0;fontColor=light-dark(#761919, #adcad5);" vertex="1" parent="1">
          <mxGeometry x="460" y="780" width="140" height="30" as="geometry" />
        </mxCell>
        <mxCell id="rtUTAHoFXrLmAwMOdA8T-145" value="&lt;font style=&quot;font-size: 20px;&quot;&gt;&lt;b&gt;email&lt;/b&gt;&lt;/font&gt;" style="text;html=1;align=center;verticalAlign=middle;whiteSpace=wrap;rounded=0;fontColor=light-dark(#761919, #adcad5);" vertex="1" parent="1">
          <mxGeometry x="220" y="680" width="80" height="30" as="geometry" />
        </mxCell>
        <mxCell id="rtUTAHoFXrLmAwMOdA8T-146" value="&lt;font style=&quot;font-size: 20px;&quot;&gt;&lt;b&gt;password&lt;/b&gt;&lt;/font&gt;" style="text;html=1;align=center;verticalAlign=middle;whiteSpace=wrap;rounded=0;fontColor=light-dark(#761919, #adcad5);" vertex="1" parent="1">
          <mxGeometry x="526.5" y="680" width="103.5" height="30" as="geometry" />
        </mxCell>
        <mxCell id="rtUTAHoFXrLmAwMOdA8T-147" value="&lt;font style=&quot;font-size: 20px;&quot;&gt;&lt;b&gt;dataResolucao&lt;/b&gt;&lt;/font&gt;" style="text;html=1;align=center;verticalAlign=middle;whiteSpace=wrap;rounded=0;fontColor=light-dark(#761919, #adcad5);" vertex="1" parent="1">
          <mxGeometry x="-290" y="460" width="140" height="30" as="geometry" />
        </mxCell>
        <mxCell id="rtUTAHoFXrLmAwMOdA8T-148" value="&lt;font style=&quot;font-size: 20px;&quot;&gt;&lt;b&gt;score&lt;/b&gt;&lt;/font&gt;" style="text;html=1;align=center;verticalAlign=middle;whiteSpace=wrap;rounded=0;fontColor=light-dark(#761919, #adcad5);" vertex="1" parent="1">
          <mxGeometry x="-250" y="320" width="80" height="30" as="geometry" />
        </mxCell>
        <mxCell id="rtUTAHoFXrLmAwMOdA8T-149" value="&lt;font style=&quot;font-size: 20px;&quot;&gt;&lt;b&gt;pergunta&lt;/b&gt;&lt;/font&gt;" style="text;html=1;align=center;verticalAlign=middle;whiteSpace=wrap;rounded=0;fontColor=light-dark(#761919, #adcad5);" vertex="1" parent="1">
          <mxGeometry x="-410" y="170" width="80" height="30" as="geometry" />
        </mxCell>
        <mxCell id="rtUTAHoFXrLmAwMOdA8T-150" value="&lt;span style=&quot;font-size: 20px;&quot;&gt;&lt;b&gt;respostasValidas&lt;/b&gt;&lt;/span&gt;" style="text;html=1;align=center;verticalAlign=middle;whiteSpace=wrap;rounded=0;fontColor=light-dark(#761919, #adcad5);" vertex="1" parent="1">
          <mxGeometry x="-390" y="245" width="180" height="30" as="geometry" />
        </mxCell>
        <mxCell id="rtUTAHoFXrLmAwMOdA8T-151" value="&lt;font style=&quot;font-size: 20px;&quot;&gt;&lt;b&gt;opcoes&lt;/b&gt;&lt;/font&gt;" style="text;html=1;align=center;verticalAlign=middle;whiteSpace=wrap;rounded=0;fontColor=light-dark(#761919, #adcad5);" vertex="1" parent="1">
          <mxGeometry x="-140" y="280" width="80" height="30" as="geometry" />
        </mxCell>
        <mxCell id="rtUTAHoFXrLmAwMOdA8T-152" value="&lt;font style=&quot;font-size: 20px;&quot;&gt;&lt;b&gt;dataInicio&lt;/b&gt;&lt;/font&gt;" style="text;html=1;align=center;verticalAlign=middle;whiteSpace=wrap;rounded=0;fontColor=light-dark(#761919, #adcad5);" vertex="1" parent="1">
          <mxGeometry x="-40" y="290" width="110" height="30" as="geometry" />
        </mxCell>
        <mxCell id="rtUTAHoFXrLmAwMOdA8T-153" value="&lt;font style=&quot;font-size: 20px;&quot;&gt;&lt;b&gt;resposta&lt;/b&gt;&lt;/font&gt;" style="text;html=1;align=center;verticalAlign=middle;whiteSpace=wrap;rounded=0;fontColor=light-dark(#761919, #adcad5);" vertex="1" parent="1">
          <mxGeometry x="-80" y="206.57" width="80" height="30" as="geometry" />
        </mxCell>
        <mxCell id="rtUTAHoFXrLmAwMOdA8T-154" value="&lt;font style=&quot;font-size: 20px;&quot;&gt;&lt;b&gt;pergunta&lt;/b&gt;&lt;/font&gt;" style="text;html=1;align=center;verticalAlign=middle;whiteSpace=wrap;rounded=0;fontColor=light-dark(#761919, #adcad5);" vertex="1" parent="1">
          <mxGeometry x="-230" y="185" width="90" height="30" as="geometry" />
        </mxCell>
        <mxCell id="rtUTAHoFXrLmAwMOdA8T-155" value="&lt;font style=&quot;font-size: 20px;&quot;&gt;&lt;b&gt;dataCriacao&lt;/b&gt;&lt;/font&gt;" style="text;html=1;align=center;verticalAlign=middle;whiteSpace=wrap;rounded=0;fontColor=light-dark(#761919, #adcad5);" vertex="1" parent="1">
          <mxGeometry x="120" y="275" width="120" height="30" as="geometry" />
        </mxCell>
        <mxCell id="rtUTAHoFXrLmAwMOdA8T-156" value="&lt;font style=&quot;font-size: 20px;&quot;&gt;&lt;b&gt;dataCriacao&lt;/b&gt;&lt;/font&gt;" style="text;html=1;align=center;verticalAlign=middle;whiteSpace=wrap;rounded=0;fontColor=light-dark(#761919, #adcad5);" vertex="1" parent="1">
          <mxGeometry x="340" y="270" width="130" height="30" as="geometry" />
        </mxCell>
        <mxCell id="rtUTAHoFXrLmAwMOdA8T-157" value="&lt;font style=&quot;font-size: 20px;&quot;&gt;&lt;b&gt;textWriting&lt;/b&gt;&lt;/font&gt;" style="text;html=1;align=center;verticalAlign=middle;whiteSpace=wrap;rounded=0;fontColor=light-dark(#761919, #adcad5);" vertex="1" parent="1">
          <mxGeometry x="190" y="41.5" width="120" height="30" as="geometry" />
        </mxCell>
        <mxCell id="rtUTAHoFXrLmAwMOdA8T-158" value="&lt;font style=&quot;font-size: 20px;&quot;&gt;&lt;b&gt;textReading&lt;/b&gt;&lt;/font&gt;" style="text;html=1;align=center;verticalAlign=middle;whiteSpace=wrap;rounded=0;fontColor=light-dark(#761919, #adcad5);" vertex="1" parent="1">
          <mxGeometry x="320" y="48.56" width="115" height="30" as="geometry" />
        </mxCell>
        <mxCell id="rtUTAHoFXrLmAwMOdA8T-159" value="&lt;font style=&quot;font-size: 20px;&quot;&gt;&lt;b&gt;audio&lt;/b&gt;&lt;/font&gt;" style="text;html=1;align=center;verticalAlign=middle;whiteSpace=wrap;rounded=0;fontColor=light-dark(#761919, #adcad5);" vertex="1" parent="1">
          <mxGeometry x="470" y="37.059999999999945" width="80" height="30" as="geometry" />
        </mxCell>
        <mxCell id="rtUTAHoFXrLmAwMOdA8T-160" value="&lt;font style=&quot;font-size: 20px;&quot;&gt;&lt;b&gt;textGrammar&lt;/b&gt;&lt;/font&gt;" style="text;html=1;align=center;verticalAlign=middle;whiteSpace=wrap;rounded=0;fontColor=light-dark(#761919, #adcad5);" vertex="1" parent="1">
          <mxGeometry x="565" y="41.5" width="130" height="30" as="geometry" />
        </mxCell>
        <mxCell id="rtUTAHoFXrLmAwMOdA8T-161" value="&lt;font style=&quot;font-size: 20px;&quot;&gt;&lt;b&gt;vocabul&lt;/b&gt;&lt;/font&gt;" style="text;html=1;align=center;verticalAlign=middle;whiteSpace=wrap;rounded=0;fontColor=light-dark(#761919, #adcad5);" vertex="1" parent="1">
          <mxGeometry x="670" y="-30.000000000000057" width="80" height="30" as="geometry" />
        </mxCell>
        <mxCell id="rtUTAHoFXrLmAwMOdA8T-163" value="&lt;font style=&quot;font-size: 20px;&quot;&gt;&lt;b&gt;word&lt;/b&gt;&lt;/font&gt;" style="text;html=1;align=center;verticalAlign=middle;whiteSpace=wrap;rounded=0;fontColor=light-dark(#761919, #adcad5);" vertex="1" parent="1">
          <mxGeometry x="719.99" y="59.99999999999994" width="80" height="30" as="geometry" />
        </mxCell>
        <mxCell id="rtUTAHoFXrLmAwMOdA8T-164" value="&lt;font style=&quot;font-size: 20px;&quot;&gt;&lt;b&gt;meaning&lt;/b&gt;&lt;/font&gt;" style="text;html=1;align=center;verticalAlign=middle;whiteSpace=wrap;rounded=0;fontColor=light-dark(#761919, #adcad5);" vertex="1" parent="1">
          <mxGeometry x="799.99" y="-30.000000000000057" width="80" height="30" as="geometry" />
        </mxCell>
        <mxCell id="rtUTAHoFXrLmAwMOdA8T-165" value="&lt;font style=&quot;font-size: 20px;&quot;&gt;&lt;b&gt;accao&lt;/b&gt;&lt;/font&gt;" style="text;html=1;align=center;verticalAlign=middle;whiteSpace=wrap;rounded=0;fontColor=light-dark(#761919, #adcad5);" vertex="1" parent="1">
          <mxGeometry x="640" y="459.99999999999994" width="80" height="30" as="geometry" />
        </mxCell>
        <mxCell id="rtUTAHoFXrLmAwMOdA8T-166" value="&lt;font style=&quot;font-size: 20px;&quot;&gt;&lt;b&gt;accao&lt;/b&gt;&lt;/font&gt;" style="text;html=1;align=center;verticalAlign=middle;whiteSpace=wrap;rounded=0;fontColor=light-dark(#761919, #adcad5);" vertex="1" parent="1">
          <mxGeometry x="640" y="359.99999999999994" width="80" height="30" as="geometry" />
        </mxCell>
        <mxCell id="rtUTAHoFXrLmAwMOdA8T-167" value="&lt;font style=&quot;font-size: 20px;&quot;&gt;&lt;b&gt;accao&lt;/b&gt;&lt;/font&gt;" style="text;html=1;align=center;verticalAlign=middle;whiteSpace=wrap;rounded=0;fontColor=light-dark(#761919, #adcad5);" vertex="1" parent="1">
          <mxGeometry x="790" y="229.99999999999994" width="80" height="30" as="geometry" />
        </mxCell>
        <mxCell id="rtUTAHoFXrLmAwMOdA8T-168" value="&lt;font style=&quot;font-size: 20px;&quot;&gt;&lt;b&gt;id&lt;/b&gt;&lt;/font&gt;" style="text;html=1;align=center;verticalAlign=middle;whiteSpace=wrap;rounded=0;fontColor=light-dark(#761919, #adcad5);" vertex="1" parent="1">
          <mxGeometry x="-320" y="-140.00000000000006" width="80" height="30" as="geometry" />
        </mxCell>
        <mxCell id="rtUTAHoFXrLmAwMOdA8T-169" value="&lt;font style=&quot;font-size: 20px;&quot;&gt;&lt;b&gt;pontos&lt;/b&gt;&lt;/font&gt;" style="text;html=1;align=center;verticalAlign=middle;whiteSpace=wrap;rounded=0;fontColor=light-dark(#761919, #adcad5);" vertex="1" parent="1">
          <mxGeometry x="-130" y="-140.00000000000006" width="80" height="30" as="geometry" />
        </mxCell>
      </root>
    </mxGraphModel>
  </diagram>
</mxfile>
